<?xml version="1.0" standalone="no"?>
<!DOCTYPE svg PUBLIC "-//W3C//DTD SVG 20010904//EN"
 "http://www.w3.org/TR/2001/REC-SVG-20010904/DTD/svg10.dtd">
<svg version="1.0" xmlns="http://www.w3.org/2000/svg"
 width="400.000000pt" height="400.000000pt" viewBox="0 0 400.000000 400.000000"
 preserveAspectRatio="xMidYMid meet">
<metadata>
Created by potrace 1.11, written by Peter Selinger 2001-2013
</metadata>
<g transform="translate(0.000000,400.000000) scale(0.100000,-0.100000)"
fill="#000000" stroke="none">
<path d="M1915 3945 c-111 -33 -195 -105 -244 -208 -40 -86 -72 -119 -156
-161 -74 -37 -128 -81 -164 -133 -30 -45 -61 -138 -61 -186 l0 -39 -46 6 c-25
3 -51 9 -57 14 -20 15 -90 28 -139 26 -84 -3 -148 -32 -210 -94 -93 -94 -114
-200 -68 -348 25 -83 22 -102 -17 -102 -47 0 -133 -27 -175 -55 -64 -42 -105
-91 -149 -176 -45 -86 -70 -110 -163 -155 -121 -59 -205 -181 -211 -309 -8
-162 70 -288 230 -369 83 -42 109 -70 154 -163 45 -92 123 -162 216 -193 47
-16 48 -16 98 -18 l38 -2 -6 -40 c-3 -22 -14 -63 -23 -92 -40 -120 -6 -247 89
-332 83 -75 197 -99 305 -64 33 10 75 21 95 24 l36 5 5 -59 c7 -75 48 -161
103 -215 24 -24 80 -63 125 -87 88 -47 113 -73 154 -161 36 -77 104 -145 185
-182 58 -27 77 -31 151 -31 74 0 94 4 150 30 83 39 141 97 184 183 49 96 75
123 159 165 143 70 223 185 226 323 1 39 16 40 109 11 115 -36 213 -26 297 32
58 40 80 67 111 134 32 71 37 168 10 231 -10 22 -20 59 -23 82 l-5 42 34 -1
c18 -1 58 7 88 17 110 36 182 100 232 205 39 80 79 120 166 164 203 102 276
323 170 516 -39 69 -85 112 -169 155 -94 48 -122 75 -163 159 -71 143 -182
220 -325 225 -33 1 -33 1 -28 44 3 23 13 60 23 82 10 25 17 65 17 108 -1 126
-81 242 -201 290 -59 24 -160 25 -222 3 -25 -10 -62 -19 -82 -22 -37 -6 -38
-5 -39 28 -3 133 -83 254 -211 317 -95 48 -122 73 -166 159 -81 156 -177 220
-337 227 -33 1 -78 -3 -100 -10z m243 -59 c68 -34 122 -93 162 -174 41 -84 80
-123 167 -166 133 -67 202 -166 205 -295 2 -100 -24 -169 -89 -242 -46 -51
-79 -68 -131 -67 -69 1 -95 -17 -147 -98 -33 -51 -53 -73 -63 -69 -8 3 -34 10
-58 16 l-44 11 -1 67 c-1 86 -3 96 -31 137 -48 71 -161 80 -224 17 -36 -35
-44 -63 -44 -147 l0 -72 -60 -16 c-66 -18 -61 -20 -104 54 -38 68 -82 99 -142
99 -147 3 -262 203 -217 379 27 105 78 164 201 229 91 49 123 82 168 176 45
93 126 162 219 186 59 16 178 3 233 -25z m-998 -676 c36 -12 80 -22 97 -22 30
0 34 -4 44 -41 19 -72 56 -132 112 -183 l54 -50 -23 -17 c-28 -21 -48 -87 -38
-130 3 -17 21 -58 39 -90 l32 -58 -45 -43 -46 -43 -60 36 c-79 47 -145 49
-199 8 l-36 -27 -58 58 c-32 31 -71 63 -88 71 -16 7 -38 17 -47 22 -10 5 -26
9 -36 9 -26 0 -42 20 -42 54 -1 17 -9 56 -20 86 -40 113 -18 213 65 296 81 81
177 102 295 64z m1884 6 c147 -45 228 -213 175 -365 -10 -31 -21 -74 -22 -96
-3 -32 -8 -39 -28 -42 -54 -7 -148 -64 -198 -119 -28 -31 -51 -51 -51 -45 0 6
-17 22 -38 35 -56 35 -112 30 -190 -16 l-61 -36 -45 44 -45 44 34 59 c43 72
52 129 29 177 -9 19 -25 39 -36 45 -17 9 -13 15 36 60 55 50 112 145 119 199
3 16 11 25 23 26 32 2 77 12 124 28 58 19 115 20 174 2z m-951 -224 c27 -27
29 -36 30 -103 l2 -74 -116 -1 -115 -1 1 69 c1 37 8 79 15 92 32 62 130 71
183 18z m-469 -110 c18 -17 76 -110 76 -124 0 -4 -10 -10 -21 -13 -29 -10
-134 -71 -153 -91 -14 -13 -18 -11 -39 23 -55 88 -63 130 -33 176 37 55 124
70 170 29z m892 12 c40 -19 68 -66 66 -108 -2 -15 -14 -49 -29 -75 -40 -71
-43 -73 -60 -56 -16 16 -130 85 -141 85 -4 0 -13 4 -20 9 -11 7 -9 18 11 57
49 95 101 122 173 88z m-269 -152 c283 -95 477 -320 532 -618 16 -82 6 -245
-19 -332 -72 -253 -266 -455 -515 -535 -75 -25 -120 -31 -225 -31 -119 -1
-168 6 -263 38 -408 137 -626 592 -480 1000 75 208 252 388 458 465 103 39
172 49 300 46 103 -2 134 -7 212 -33z m-1391 -66 c36 -8 101 -44 138 -77 54
-47 75 -88 74 -143 -1 -58 19 -88 88 -133 92 -60 86 -50 67 -114 l-17 -57 -86
-4 c-98 -5 -128 -20 -159 -81 -36 -72 -5 -167 66 -201 21 -10 61 -16 106 -16
l73 0 16 -61 16 -61 -45 -26 c-100 -58 -139 -116 -126 -184 10 -52 -108 -164
-200 -189 -161 -45 -320 29 -398 184 -49 98 -81 131 -165 173 -91 46 -143 94
-181 166 -25 47 -28 63 -28 148 0 84 3 101 27 146 38 71 94 125 169 161 92 43
125 75 169 162 56 111 114 167 210 199 50 17 131 21 186 8z m2504 -11 c87 -31
147 -89 196 -192 40 -83 78 -120 172 -167 83 -42 137 -94 171 -166 22 -46 26
-69 26 -140 0 -71 -4 -94 -26 -140 -34 -72 -88 -124 -171 -166 -94 -47 -130
-83 -172 -168 -55 -111 -120 -169 -222 -198 -125 -36 -250 3 -342 107 -37 42
-41 53 -41 96 2 63 -23 105 -86 146 -94 61 -88 50 -69 116 l17 57 69 0 c106 0
165 35 185 110 20 71 -6 134 -67 169 -29 16 -55 21 -112 21 l-75 0 -16 57
c-17 64 -15 69 40 97 79 41 116 92 115 159 -1 22 5 52 13 66 15 30 77 89 117
114 69 43 191 53 278 22z m-2061 -122 c14 -9 36 -22 48 -28 l22 -12 -34 -48
c-19 -27 -45 -70 -57 -97 -12 -26 -25 -48 -30 -48 -13 0 -111 64 -125 82 -21
25 -25 84 -9 116 36 69 111 84 185 35z m1560 12 c53 -27 72 -106 39 -157 -16
-24 -125 -95 -132 -87 -2 2 -15 27 -29 54 -14 28 -37 67 -51 88 -14 21 -26 42
-26 47 0 16 105 70 138 70 18 0 46 -7 61 -15z m-1663 -555 l-1 -115 -75 2
c-72 2 -76 4 -107 37 -52 56 -42 127 23 171 23 16 46 21 96 20 l65 0 -1 -115z
m1756 111 c34 -2 79 -54 84 -96 10 -82 -40 -126 -143 -129 l-70 -2 0 115 0
116 56 -1 c31 -1 64 -2 73 -3z m-1674 -468 c12 -27 35 -68 52 -93 16 -25 30
-48 30 -52 0 -17 -112 -68 -150 -68 -93 0 -143 130 -74 192 20 18 105 68 115
68 4 0 16 -21 27 -47z m1547 18 c65 -37 86 -62 90 -104 6 -68 -50 -131 -116
-129 -29 1 -139 58 -139 72 0 5 13 28 29 52 16 24 39 64 52 91 13 26 25 47 28
47 4 0 29 -13 56 -29z m-1381 -342 c-19 -32 -37 -71 -40 -87 -8 -41 13 -109
40 -129 l23 -17 -57 -52 c-54 -51 -110 -142 -110 -181 0 -29 -13 -39 -55 -42
-21 -1 -59 -11 -85 -20 -135 -52 -288 8 -351 136 -31 64 -34 158 -8 229 11 29
21 69 22 90 2 31 6 38 27 41 55 7 150 64 196 117 l46 52 29 -27 c56 -52 119
-50 209 6 l55 34 47 -46 46 -45 -34 -59z m1362 77 c41 0 60 6 89 29 32 24 40
26 49 14 56 -75 115 -118 196 -144 54 -17 56 -19 57 -54 1 -21 10 -57 20 -82
26 -64 23 -170 -7 -232 -43 -90 -150 -157 -251 -157 -20 0 -67 9 -104 21 -37
11 -80 21 -96 21 -26 1 -31 6 -44 51 -22 73 -58 129 -116 180 -38 33 -47 46
-35 50 8 3 24 23 35 45 28 54 21 108 -23 181 l-36 59 45 45 45 46 62 -37 c51
-30 72 -37 114 -36z m-252 -111 c14 -27 26 -63 26 -78 0 -99 -125 -150 -192
-79 -26 27 -74 110 -67 116 2 2 36 20 76 40 39 21 79 46 90 56 22 22 30 15 67
-55z m-1001 41 c18 -13 57 -36 87 -52 30 -15 57 -29 59 -30 5 -4 -49 -96 -72
-121 -49 -54 -144 -33 -176 38 -13 29 -17 50 -11 69 11 39 60 120 72 120 5 0
24 -11 41 -24z m262 -117 l43 -11 4 -86 c3 -95 17 -125 72 -158 39 -23 114
-22 153 1 49 29 70 78 72 165 1 41 3 76 5 78 2 1 15 5 30 8 14 2 37 9 52 14
33 13 36 11 72 -53 45 -79 82 -107 143 -107 61 0 94 -16 142 -69 109 -121 121
-294 29 -421 -39 -53 -70 -77 -150 -117 -85 -43 -120 -79 -164 -169 -132 -270
-483 -274 -613 -7 -44 92 -78 127 -164 172 -146 76 -212 172 -213 310 -1 103
33 181 109 251 50 46 58 50 102 49 26 -1 61 5 77 12 28 14 74 69 107 129 12
22 22 30 33 26 9 -4 36 -11 59 -17z m309 -68 c-1 -25 -2 -59 -3 -74 -1 -19
-13 -41 -35 -63 -47 -47 -101 -48 -152 -1 -35 32 -36 36 -39 108 l-2 75 116 1
116 0 -1 -46z"/>
<path d="M1574 2498 c-6 -10 -7 -10 36 -12 52 -4 79 -15 92 -39 13 -25 20
-671 7 -740 -9 -53 -28 -69 -88 -75 -28 -2 -51 -8 -51 -13 0 -5 90 -9 200 -9
219 0 224 -2 178 -55 -21 -24 -39 -30 -106 -34 -7 -1 -11 -5 -8 -10 8 -13 408
-11 403 2 -2 6 -19 12 -38 13 -19 0 -39 2 -46 3 -19 2 -53 43 -53 63 0 16 11
18 115 18 63 0 115 1 116 3 1 1 3 57 5 124 5 124 -4 159 -25 100 -28 -75 -66
-139 -100 -166 -40 -32 -110 -49 -112 -28 -7 63 -2 280 6 283 5 2 62 5 125 7
142 6 165 10 215 45 54 38 86 99 92 175 8 97 -33 172 -118 214 -68 34 -89 36
-339 37 -181 1 -235 4 -234 14 1 6 2 19 3 27 2 21 35 35 93 39 29 2 54 8 55
13 4 11 -416 13 -423 1z m704 -127 c63 -17 108 -68 122 -136 11 -52 8 -121 -7
-162 -12 -36 -57 -86 -88 -99 -47 -19 -205 -28 -206 -12 -6 53 -3 414 4 419
13 9 128 3 175 -10z m-325 -22 c19 -24 19 -11 20 -416 0 -161 -2 -296 -6 -299
-3 -4 -27 -3 -52 0 -79 12 -78 8 -80 389 -1 183 1 338 3 345 7 22 93 7 115
-19z"/>
</g>
</svg>
